<?xml version="1.0" ?><svg id="Icons" style="enable-background:new 0 0 32 32;" version="1.1" viewBox="0 0 32 32" xml:space="preserve" xmlns="http://www.w3.org/2000/svg" xmlns:xlink="http://www.w3.org/1999/xlink"><g><path d="M16,16.1c-0.9,0-9.1-0.1-9.1-3.3C6.9,8,11,4,16,4s9.1,4,9.1,8.9C25.1,16,16.9,16.1,16,16.1z"/></g><path d="M27,11.6c0.1,0.4,0.1,0.9,0.1,1.3c0,4.7-7.7,5.3-11.1,5.3S4.9,17.6,4.9,12.9c0-0.4,0-0.9,0.1-1.3C1.8,13,0,15,0,17.3  C0,21.6,7,25,16,25s16-3.4,16-7.8C32,15,30.2,13,27,11.6z M18,22h-4c-0.6,0-1-0.4-1-1s0.4-1,1-1h4c0.6,0,1,0.4,1,1S18.6,22,18,22z"/></svg>